<svg width="86" height="26" viewBox="0 0 86 26" fill="none"
  xmlns="http://www.w3.org/2000/svg">

  <path d="M0 2.07446V23.7455C0 24.8935 0.926459 25.82 2.07446 25.82H31.419V0H2.07446C0.926459 0 0 0.926459 0 2.07446ZM15.0449 19.7779L14.5011 17.925H9.90908L9.38543 19.7779H4.87398L9.90908 5.69973H14.6018L19.6369 19.7779H15.0449ZM25.9408 19.7779H21.3287V5.69973H25.9408V19.7779Z" fill="#231F20"/>
  <path d="M10.7754 14.9853H13.6957L12.2054 9.9502L10.7754 14.9853Z" fill="#231F20"/>
  <path d="M43.8662 7.12988L43.1814 9.22448H44.5308L43.8662 7.12988Z" fill="#231F20"/>
  <path d="M66.2624 19.0926C67.0632 19.0926 67.7125 18.263 67.7125 17.2396C67.7125 16.2163 67.0632 15.3867 66.2624 15.3867C65.4615 15.3867 64.8123 16.2163 64.8123 17.2396C64.8123 18.263 65.4615 19.0926 66.2624 19.0926Z" fill="#231F20"/>
  <path d="M44.0675 15.3867C43.4633 15.3867 42.6174 15.7492 42.6174 17.2396C42.6174 18.73 43.4633 19.0926 44.0675 19.0926C44.6718 19.0926 45.5177 18.73 45.5177 17.2396C45.5177 15.7492 44.6718 15.3867 44.0675 15.3867Z" fill="#231F20"/>
  <path d="M83.8448 0H31.9229V25.82H83.8448C84.9928 25.82 85.9193 24.8935 85.9193 23.7455V2.07446C85.9193 0.926459 84.9928 0 83.8448 0ZM38.8109 20.0397C36.8774 20.0397 36.535 18.932 36.535 18.2673H37.6024C37.6024 18.5695 37.7636 19.1334 38.7303 19.1334C39.254 19.1334 39.838 19.0125 39.838 18.4486C39.838 18.0257 39.4352 17.925 38.8713 17.784L38.3074 17.643C37.4413 17.4416 36.6156 17.2603 36.6156 16.072C36.6156 15.488 36.9378 14.4407 38.6497 14.4407C40.2811 14.4407 40.7242 15.5081 40.7242 16.1526H39.6568C39.6366 15.9109 39.5359 15.347 38.5692 15.347C38.1462 15.347 37.6427 15.5081 37.6427 15.9915C37.6427 16.4144 37.9851 16.495 38.2067 16.5554L39.4956 16.8777C40.2207 17.0589 40.8853 17.361 40.8853 18.3076C40.8853 19.8987 39.254 20.0397 38.7907 20.0397H38.8109ZM38.8109 11.3793C36.8774 11.3793 36.535 10.2716 36.535 9.60697H37.6024C37.6024 9.90908 37.7636 10.473 38.7303 10.473C39.254 10.473 39.838 10.3522 39.838 9.78824C39.838 9.36529 39.4352 9.26459 38.8713 9.1236L38.3074 8.98262C37.4413 8.78122 36.6156 8.59995 36.6156 7.41167C36.6156 6.8276 36.9378 5.7803 38.6497 5.7803C40.2811 5.7803 40.7242 6.84774 40.7242 7.49223H39.6568C39.6366 7.25055 39.5359 6.68661 38.5692 6.68661C38.1462 6.68661 37.6427 6.84774 37.6427 7.33111C37.6427 7.75406 37.9851 7.83462 38.2067 7.89504L39.4956 8.21729C40.2207 8.39855 40.8853 8.70065 40.8853 9.64725C40.8853 11.2383 39.254 11.3793 38.7907 11.3793H38.8109ZM43.2216 5.92128H44.5106L46.3837 11.2383H45.1752L44.8329 10.1508H42.8792L42.5167 11.2383H41.3486L43.2418 5.92128H43.2216ZM44.0675 20.0397C43.3626 20.0397 41.5097 19.7376 41.5097 17.2402C41.5097 14.7428 43.3626 14.4407 44.0675 14.4407C44.7724 14.4407 46.6253 14.7428 46.6253 17.2402C46.6253 19.7376 44.7724 20.0397 44.0675 20.0397ZM47.0886 5.92128H48.1963V10.2716H50.8347V11.2383H47.0886V5.92128ZM51.2576 19.8987H47.5115V14.5817H48.6192V18.932H51.2576V19.8987ZM51.6 5.92128H55.5073V6.86788H52.6876V7.99574H55.2857V8.94234H52.6876V10.3119H55.6281V11.2585H51.6V5.94142V5.92128ZM56.2726 18.0257C56.2726 19.4355 55.4267 20.0196 54.0974 20.0196C53.6141 20.0196 52.889 19.8987 52.4056 19.3751C52.1237 19.0528 52.0028 18.6097 51.9827 18.0861V14.5615H53.1106V18.0055C53.1106 18.7507 53.5335 19.073 54.0572 19.073C54.8225 19.073 55.1246 18.7104 55.1246 18.0659V14.5615H56.2525V18.0257H56.2726ZM56.2726 9.58683H57.34C57.34 9.88894 57.5012 10.4529 58.4679 10.4529C58.9916 10.4529 59.5756 10.332 59.5756 9.7681C59.5756 9.34515 59.1728 9.24445 58.6089 9.10346L58.045 8.96248C57.1789 8.76108 56.3532 8.57981 56.3532 7.39153C56.3532 6.80746 56.6754 5.76016 58.3873 5.76016C60.0187 5.76016 60.4618 6.8276 60.4618 7.47209H59.3944C59.3742 7.23041 59.2735 6.66647 58.3068 6.66647C57.8838 6.66647 57.3803 6.8276 57.3803 7.31097C57.3803 7.73392 57.7227 7.81448 57.9443 7.8749L59.2332 8.19715C59.9583 8.37841 60.6229 8.68052 60.6229 9.62711C60.6229 11.2182 58.9916 11.3592 58.5283 11.3592C56.5948 11.3592 56.2525 10.2515 56.2525 9.58683H56.2726ZM61.2271 15.5081H59.6159V19.8786H58.5082V15.5081H56.897V14.5615H61.2271V15.5081ZM62.8988 19.8786H61.7911V14.5615H62.8988V19.8786ZM66.2421 20.0196C65.5372 20.0196 63.6843 19.7175 63.6843 17.22C63.6843 14.7226 65.5372 14.4205 66.2421 14.4205C66.947 14.4205 68.7999 14.7226 68.7999 17.22C68.7999 19.7175 66.947 20.0196 66.2421 20.0196ZM73.9559 19.8786H72.8481L70.673 16.0922V19.8786H69.6458V14.5615H70.814L72.9287 18.2673V14.5615H73.9559V19.8786ZM77.0172 20.0196C75.0837 20.0196 74.7414 18.9118 74.7414 18.2472H75.8088C75.8088 18.5493 75.9699 19.1132 76.9367 19.1132C77.4603 19.1132 78.0444 18.9924 78.0444 18.4285C78.0444 18.0055 77.6416 17.9048 77.0776 17.7638L76.5137 17.6229C75.6477 17.4214 74.8219 17.2402 74.8219 16.0519C74.8219 15.4678 75.1442 14.4205 76.8561 14.4205C78.4875 14.4205 78.9306 15.488 78.9306 16.1325H77.8631C77.843 15.8908 77.7423 15.3268 76.7755 15.3268C76.3526 15.3268 75.8491 15.488 75.8491 15.9713C75.8491 16.3943 76.1915 16.4749 76.413 16.5353L77.702 16.8575C78.427 17.0388 79.0917 17.3409 79.0917 18.2875C79.0917 19.8786 77.4603 20.0196 76.9971 20.0196H77.0172Z" fill="#231F20"/>
</svg>
